<svg width="9" height="12" viewBox="0 0 9 12" fill="none" xmlns="http://www.w3.org/2000/svg">
<path d="M4.42188 6.85938H1.52344L1.50781 5.42969H4.03906C4.46615 5.42969 4.82812 5.36719 5.125 5.24219C5.42708 5.11198 5.65625 4.92708 5.8125 4.6875C5.96875 4.44271 6.04688 4.14844 6.04688 3.80469C6.04688 3.42448 5.97396 3.11458 5.82812 2.875C5.68229 2.63542 5.45833 2.46094 5.15625 2.35156C4.85938 2.24219 4.47917 2.1875 4.01562 2.1875H2.11719V12H0.15625V0.625H4.01562C4.64062 0.625 5.19792 0.684896 5.6875 0.804688C6.18229 0.924479 6.60156 1.11198 6.94531 1.36719C7.29427 1.61719 7.55729 1.9349 7.73438 2.32031C7.91667 2.70573 8.00781 3.16406 8.00781 3.69531C8.00781 4.16406 7.89583 4.59375 7.67188 4.98438C7.44792 5.36979 7.11719 5.6849 6.67969 5.92969C6.24219 6.17448 5.69792 6.32031 5.04688 6.36719L4.42188 6.85938ZM4.33594 12H0.90625L1.78906 10.4453H4.33594C4.77865 10.4453 5.14844 10.3724 5.44531 10.2266C5.74219 10.0755 5.96354 9.86979 6.10938 9.60938C6.26042 9.34375 6.33594 9.03385 6.33594 8.67969C6.33594 8.3099 6.27083 7.98958 6.14062 7.71875C6.01042 7.44271 5.80469 7.23177 5.52344 7.08594C5.24219 6.9349 4.875 6.85938 4.42188 6.85938H2.21875L2.23438 5.42969H5.10156L5.54688 5.96875C6.17188 5.98958 6.6849 6.1276 7.08594 6.38281C7.49219 6.63802 7.79427 6.96875 7.99219 7.375C8.1901 7.78125 8.28906 8.21875 8.28906 8.6875C8.28906 9.41146 8.13021 10.0182 7.8125 10.5078C7.5 10.9974 7.04948 11.3698 6.46094 11.625C5.8724 11.875 5.16406 12 4.33594 12Z" fill="white"/>
</svg>
