<svg width="11" height="15" viewBox="0 0 11 15" fill="none" xmlns="http://www.w3.org/2000/svg">
<path d="M7.53906 0.625H9.49219V8.22656C9.49219 9.09115 9.30469 9.8151 8.92969 10.3984C8.55469 10.9818 8.04427 11.4219 7.39844 11.7188C6.75781 12.0104 6.04167 12.1562 5.25 12.1562C4.43229 12.1562 3.70312 12.0104 3.0625 11.7188C2.42188 11.4219 1.91667 10.9818 1.54688 10.3984C1.18229 9.8151 1 9.09115 1 8.22656V0.625H2.95312V8.22656C2.95312 8.77344 3.04688 9.22396 3.23438 9.57812C3.42188 9.92708 3.6875 10.1849 4.03125 10.3516C4.375 10.5182 4.78125 10.6016 5.25 10.6016C5.71875 10.6016 6.1224 10.5182 6.46094 10.3516C6.80469 10.1849 7.07031 9.92708 7.25781 9.57812C7.44531 9.22396 7.53906 8.77344 7.53906 8.22656V0.625Z" fill="white"/>
<path d="M0 13.5625H10.4688V14.3438H0V13.5625Z" fill="white"/>
</svg>
