<svg width="38" height="38" viewBox="0 0 38 38" fill="none" xmlns="http://www.w3.org/2000/svg">
<path d="M11.0833 32.7148V30.0833C11.0833 29.2435 11.4169 28.438 12.0108 27.8442C12.6047 27.2503 13.4101 26.9167 14.25 26.9167H23.75C24.5898 26.9167 25.3953 27.2503 25.9891 27.8442C26.583 28.438 26.9166 29.2435 26.9166 30.0833V32.7148M34.8333 19C34.8333 27.7445 27.7445 34.8333 19 34.8333C10.2555 34.8333 3.16663 27.7445 3.16663 19C3.16663 10.2555 10.2555 3.16667 19 3.16667C27.7445 3.16667 34.8333 10.2555 34.8333 19ZM23.75 15.8333C23.75 18.4567 21.6233 20.5833 19 20.5833C16.3766 20.5833 14.25 18.4567 14.25 15.8333C14.25 13.21 16.3766 11.0833 19 11.0833C21.6233 11.0833 23.75 13.21 23.75 15.8333Z" stroke="white" stroke-width="2" stroke-linecap="round" stroke-linejoin="round"/>
</svg>
